# xmcd CD database file
#
# Track frame offsets:
#	182
#	37082
#	55947
#	70195
#	82577
#	96387
#	113315
#	125215
#	140525
#	160862
#	168480
#	177230
#	193697
#	205037
#	217415
#
# Disc length: 3020 seconds
#
# Revision: 0
# Processed by: cddbd v1.4PL0 Copyright (c) Steve Scherf et al.
# Submitted via: CDex 1.50beta10
#
DISCID=d90bca0f
DTITLE=Ella Fitzgerald - The Best Off
DYEAR=1900
DGENRE=Jazz
TTITLE0=How high the moon
TTITLE1=Mr Paginini
TTITLE2=Starlit Hour
TTITLE3=Sing Song Swing
TTITLE4=Sugar Blues
TTITLE5=It's a Blue World
TTITLE6=Is there Somebody Else
TTITLE7=Chewin' Gim
TTITLE8=Flying Home
TTITLE9=Lemon Drop
TTITLE10=Old Mother Hubbard
TTITLE11=There's a Small Hotel
TTITLE12=Robin's Nest
TTITLE13=As You Desir Me
TTITLE14=Thou Swell
EXTD=
EXTT0=
EXTT1=
EXTT2=
EXTT3=
EXTT4=
EXTT5=
EXTT6=
EXTT7=
EXTT8=
EXTT9=
EXTT10=
EXTT11=
EXTT12=
EXTT13=
EXTT14=
PLAYORDER=
